PathFileType	4	(X/Y/Z)	/Users/itak/Documents/Research/Walk-IL/dataset/trc/00048_00006.trc
DataRate	CameraRate	NumFrames	NumMarkers	Units	OrigDataRate	OrigDataStartFrame	OrigNumFrames
100.000000	100.000000	4	53	mm	100.000000	400	458
Frame#	Time	RPSI			LPSI			L3			STRN			T10			C7			CLAV			RBAK			LBAK			LSHO			LUPA			LAEL			LAOL			LWTS			LWPS			LFRA			LIFD			LHPS			LHTS			RSHO			RUPA			RAEL			RAOL			RWTS			RWPS			RFRA			RIFD			RHTS			RHPS			RBHD			LFHD			RFHD			LBHD			LHIP			RHIP			RASI			LASI			LKNE			LTHI			LANK			LTIP			LTOE			LMT1			LMT5			LHEE			RKNE			RTHI			RANK			RTIP			RTOE			RMT1			RMT5			RHEE			
		X1	Y1	Z1	X2	Y2	Z2	X3	Y3	Z3	X4	Y4	Z4	X5	Y5	Z5	X6	Y6	Z6	X7	Y7	Z7	X8	Y8	Z8	X9	Y9	Z9	X10	Y10	Z10	X11	Y11	Z11	X12	Y12	Z12	X13	Y13	Z13	X14	Y14	Z14	X15	Y15	Z15	X16	Y16	Z16	X17	Y17	Z17	X18	Y18	Z18	X19	Y19	Z19	X20	Y20	Z20	X21	Y21	Z21	X22	Y22	Z22	X23	Y23	Z23	X24	Y24	Z24	X25	Y25	Z25	X26	Y26	Z26	X27	Y27	Z27	X28	Y28	Z28	X29	Y29	Z29	X30	Y30	Z30	X31	Y31	Z31	X32	Y32	Z32	X33	Y33	Z33	X34	Y34	Z34	X35	Y35	Z35	X36	Y36	Z36	X37	Y37	Z37	X38	Y38	Z38	X39	Y39	Z39	X40	Y40	Z40	X41	Y41	Z41	X42	Y42	Z42	X43	Y43	Z43	X44	Y44	Z44	X45	Y45	Z45	X46	Y46	Z46	X47	Y47	Z47	X48	Y48	Z48	X49	Y49	Z49	X50	Y50	Z50	X51	Y51	Z51	X52	Y52	Z52	X53	Y53	Z53	

401	4	-773.0172119140625	1038.465576171875	-99.07295227050781	-797.6438598632812	1029.4072265625	-273.1180725097656	-779.5631103515625	1090.53955078125	-191.9837341308594	-519.3125	1280.998413085938	-215.4297485351562	-790.0012817382812	1225.703979492188	-193.9251556396484	-723.671630859375	1490.02978515625	-208.8849182128906	-781.8717041015625	1355.248046875	-125.1793518066406	-546.3199462890625	1396.125244140625	-218.5301513671875	-753.96484375	1450.2587890625	-306.4365844726562	-657.1258544921875	1450.246704101562	-386.9129333496094	-684.1378173828125	1320.800903320312	-458.0668334960938	-669.9584350585938	1104.72802734375	-469.5158081054688	-723.8970947265625	1094.6103515625	-377.8050537109375	-570.235595703125	869.8294677734375	-402.9337463378906	-633.869873046875	855.3267822265625	-456.0779113769531	-649.5823364257812	995.2918701171875	-473.368896484375	-554.8221435546875	686.0577392578125	-375.4577026367188	-598.1505126953125	775.422607421875	-451.4115600585938	-546.1433715820312	788.3172607421875	-404.2968139648438	-646.7864990234375	1458.082763671875	-38.24983596801758	-656.1876220703125	1392.547241210938	28.02886962890625	-696.7561645507812	1135.8857421875	81.34293365478516	-685.2691650390625	1104.181396484375	-12.8983154296875	-565.0830688476562	877.5051879882812	51.95785903930664	-629.7846069335938	868.3286743164062	112.1853485107422	-685.9761962890625	1055.2412109375	95.82022094726562	-579.4783935546875	690.27294921875	38.37650680541992	-545.9295654296875	773.9564208984375	55.49788665771484	-595.7214965820312	776.026123046875	115.3683700561523	-683.3350830078125	1673.2939453125	-276.1745910644531	-514.223388671875	1695.252563476562	-143.6800537109375	-507.8080139160156	1706.088623046875	-269.093505859375	-680.6631469726562	1654.235229492188	-139.2086334228516	-706.1416625976562	964.7223510742188	-374.4311828613281	-704.1840209960938	963.962158203125	-27.20366859436035	-581.74169921875	975.547607421875	-59.67842864990234	-588.8182983398438	968.84912109375	-326.6172485351562	-613.114501953125	496.9408264160156	-346.8801879882812	-650.3441772460938	640.0509033203125	-377.10791015625	-801.360107421875	57.86238098144531	-375.4710388183594	-719.2254028320312	267.0350952148438	-376.1116638183594	-599.2177734375	42.75334548950195	-377.7889709472656	-644.0867919921875	44.94007110595703	-322.319091796875	-702.0538330078125	40.54362487792969	-419.7919311523438	-849.89794921875	62.42261123657227	-297.0667724609375	-649.681884765625	514.5610961914062	-62.24950408935547	-629.4176635742188	784.405029296875	-28.92313575744629	-766.75	42.67057418823242	-79.62187957763672	-676.97900390625	391.2226257324219	-59.65740966796875	-552.0713500976562	43.37477111816406	-119.5576095581055	-612.2219848632812	44.97851181030273	-157.1050109863281	-642.0519409179688	50.00914764404297	-63.52163696289062	-815.2940673828125	44.53569793701172	-137.5795135498047	
402	4.01	-773.2168579101562	1038.211059570312	-100.4156799316406	-797.8604736328125	1029.315795898438	-274.47314453125	-779.8287963867188	1090.216918945312	-193.4325408935547	-519.9514770507812	1281.125854492188	-216.5785217285156	-790.4848022460938	1225.414794921875	-195.3842315673828	-724.69482421875	1489.851684570312	-209.913818359375	-782.821533203125	1354.900024414062	-126.4321441650391	-547.2230224609375	1396.148803710938	-219.5180969238281	-754.8036499023438	1450.118896484375	-307.5147094726562	-657.899169921875	1450.337524414062	-387.9506530761719	-684.9299926757812	1320.935668945312	-459.2264099121094	-671.0547485351562	1104.785888671875	-470.5991821289062	-725.1642456054688	1094.823852539062	-378.9864501953125	-571.9385375976562	869.7470703125	-403.6083679199219	-635.454833984375	855.3350830078125	-456.92333984375	-650.8683471679688	995.307373046875	-474.3349914550781	-557.0122680664062	685.9605102539062	-375.9638671875	-599.9673461914062	775.351806640625	-452.09375	-547.8687744140625	788.2390747070312	-404.9380187988281	-647.9317626953125	1457.77392578125	-39.19655609130859	-657.3788452148438	1392.031127929688	26.90143966674805	-698.0921630859375	1135.282348632812	79.17882537841797	-686.4405517578125	1103.85107421875	-15.14754009246826	-567.2154541015625	876.5455932617188	49.62924194335938	-632.1219482421875	867.5892333984375	109.6399383544922	-687.6048583984375	1054.6357421875	93.46179962158203	-582.7122802734375	689.2257080078125	35.75222015380859	-548.7326049804688	772.7875366210938	53.03573226928711	-598.6527099609375	775.0769653320312	112.7624816894531	-685.0054321289062	1672.941650390625	-277.1651000976562	-516.1342163085938	1695.64404296875	-144.5108795166016	-509.6667175292969	1706.461181640625	-269.9160461425781	-682.3972778320312	1653.916625976562	-140.1665496826172	-706.1517333984375	964.3092651367188	-375.5011901855469	-704.1961669921875	964.0929565429688	-28.42987251281738	-581.7237548828125	975.6986083984375	-61.0471076965332	-588.9622802734375	968.6248168945312	-328.0626525878906	-618.6785278320312	496.5421447753906	-347.3792724609375	-654.4608764648438	639.5722045898438	-377.8197021484375	-801.6444702148438	55.97068786621094	-374.7901000976562	-722.104248046875	265.8138122558594	-376.0218505859375	-598.9842529296875	42.72911071777344	-378.037109375	-643.8046264648438	44.74092102050781	-322.2135314941406	-702.1091918945312	40.10450744628906	-419.5608825683594	-849.9750366210938	59.57908248901367	-296.1126403808594	-650.3743286132812	514.6785278320312	-63.00303268432617	-629.6428833007812	784.5160522460938	-29.99166488647461	-766.6529541015625	42.7734260559082	-79.72388458251953	-677.6946411132812	391.4936828613281	-60.33771896362305	-551.9217529296875	43.29957962036133	-119.425407409668	-612.1341552734375	44.88828277587891	-157.1766052246094	-641.9326782226562	49.93053817749023	-63.58209991455078	-815.2296142578125	44.62007522583008	-137.6488647460938	
403	4.02	-773.3818969726562	1037.9775390625	-101.7599563598633	-798.1016845703125	1029.262939453125	-275.8228454589844	-780.0941772460938	1089.917114257812	-194.8818359375	-520.5663452148438	1281.2412109375	-217.7640838623047	-790.9330444335938	1225.165649414062	-196.8908081054688	-725.6448974609375	1489.69384765625	-210.9565887451172	-783.7289428710938	1354.574462890625	-127.7139053344727	-548.0722045898438	1396.171142578125	-220.5340728759766	-755.5834350585938	1450.013671875	-308.6120910644531	-658.6141967773438	1450.45556640625	-389.00732421875	-685.67919921875	1321.111694335938	-460.4222412109375	-672.1268920898438	1104.885131835938	-471.7464599609375	-726.4229736328125	1095.074340820312	-380.2366638183594	-573.6055908203125	869.717041015625	-404.352783203125	-637.0101318359375	855.3795776367188	-457.8343200683594	-652.1259765625	995.359130859375	-475.3710021972656	-559.1401977539062	685.9136962890625	-376.5350646972656	-601.741943359375	775.3206787109375	-452.8447875976562	-549.5547485351562	788.2096557617188	-405.650634765625	-649.0121459960938	1457.455810546875	-40.16497039794922	-658.5096435546875	1391.504638671875	25.74547004699707	-699.3453369140625	1134.670166015625	77.02018737792969	-687.5584716796875	1103.514404296875	-17.38828277587891	-569.2489013671875	875.6092529296875	47.23257446289062	-634.33447265625	866.833984375	107.0594863891602	-689.131103515625	1054.026489257812	91.10020446777344	-585.7196655273438	688.235107421875	33.01628494262695	-551.3837280273438	771.6669311523438	50.48347091674805	-601.4069213867188	774.1263427734375	110.0758743286133	-686.5886840820312	1672.592651367188	-278.1647033691406	-517.94580078125	1696.022583007812	-145.3639221191406	-511.4366149902344	1706.821044921875	-270.7611083984375	-684.0349731445312	1653.601196289062	-141.1320343017578	-706.1598510742188	963.9263916015625	-376.5758666992188	-704.1634521484375	964.2490844726562	-29.66936874389648	-581.66064453125	975.8533325195312	-62.46923828125	-589.1378784179688	968.4298706054688	-329.5474548339844	-623.7242431640625	496.2572631835938	-347.8070678710938	-658.172119140625	639.1796264648438	-378.4752807617188	-801.7948608398438	54.40993881225586	-374.1913452148438	-724.5872802734375	264.7774963378906	-375.9022827148438	-598.6795654296875	42.73564529418945	-378.1977233886719	-643.48193359375	44.55917739868164	-322.0523071289062	-702.0657958984375	39.85166931152344	-419.2957458496094	-849.98876953125	57.09504318237305	-295.2923889160156	-651.0899658203125	514.80517578125	-63.8190803527832	-629.8538208007812	784.6305541992188	-31.11188125610352	-766.5670776367188	42.89038467407227	-79.84072113037109	-678.437744140625	391.7861022949219	-61.06010437011719	-551.7718505859375	43.24534606933594	-119.2809143066406	-612.0485229492188	44.80893325805664	-157.2453460693359	-641.8273315429688	49.8786735534668	-63.6564826965332	-815.1593627929688	44.69865417480469	-137.7319488525391	
404	4.03	-773.5189819335938	1037.778442382812	-103.0894622802734	-798.3693237304688	1029.252319335938	-277.1502075195312	-780.3579711914062	1089.646362304688	-196.3138732910156	-521.1654663085938	1281.349609375	-218.9795684814453	-791.3623657226562	1224.960083007812	-198.4310455322266	-726.5265502929688	1489.561157226562	-212.0084381103516	-784.5970458984375	1354.276489257812	-129.0176086425781	-548.87255859375	1396.200317382812	-221.5747375488281	-756.3108520507812	1449.947509765625	-309.7246398925781	-659.2781372070312	1450.603515625	-390.0791015625	-686.3883056640625	1321.330688476562	-461.6496276855469	-673.168701171875	1105.028076171875	-472.9539794921875	-727.6639404296875	1095.3623046875	-381.5506896972656	-575.2318725585938	869.7354125976562	-405.1725463867188	-638.5294189453125	855.4627685546875	-458.8166198730469	-653.3485107421875	995.4511108398438	-476.4765625	-561.2151489257812	685.9098510742188	-377.1756591796875	-603.4705810546875	775.3292236328125	-453.6715087890625	-551.1973876953125	788.2271728515625	-406.4395446777344	-650.032470703125	1457.13623046875	-41.15237045288086	-659.5838012695312	1390.976806640625	24.56706047058105	-700.5259399414062	1134.054931640625	74.86473846435547	-688.6233520507812	1103.1767578125	-19.62284088134766	-571.1801147460938	874.7025756835938	44.78461456298828	-636.4273071289062	866.0717163085938	104.4545364379883	-690.5606079101562	1053.41943359375	88.73532104492188	-588.4987182617188	687.2998046875	30.2048225402832	-553.8768310546875	770.6002807617188	47.86888885498047	-603.9869384765625	773.1852416992188	107.3331527709961	-688.0890502929688	1672.2548828125	-279.1686706542969	-519.6585693359375	1696.38916015625	-146.2366485595703	-513.1161499023438	1707.173217773438	-271.6276245117188	-685.5780639648438	1653.29638671875	-142.1044464111328	-706.1895141601562	963.584228515625	-377.6536560058594	-704.0878295898438	964.4301147460938	-30.91426658630371	-581.5673828125	976.0079345703125	-63.94385528564453	-589.3487548828125	968.2739868164062	-331.0704956054688	-628.2400512695312	496.0722351074219	-348.1759338378906	-661.46826171875	638.8715209960938	-379.0708923339844	-801.8717651367188	53.17156219482422	-373.6849365234375	-726.7084350585938	263.9308776855469	-375.7654113769531	-598.3678588867188	42.75952529907227	-378.2677307128906	-643.1815795898438	44.38773345947266	-321.8452453613281	-701.982177734375	39.74390029907227	-419.0050659179688	-850.0018920898438	54.99673461914062	-294.6216430664062	-651.8123168945312	514.9413452148438	-64.69155883789062	-630.0484008789062	784.7510375976562	-32.27988052368164	-766.4929809570312	43.02094268798828	-79.9708251953125	-679.1943359375	392.0976257324219	-61.81626892089844	-551.624755859375	43.21105575561523	-119.123908996582	-611.964599609375	44.73911666870117	-157.3101348876953	-641.7349853515625	49.84842300415039	-63.7419548034668	-815.0809936523438	44.77162170410156	-137.8281402587891	
